# xmcd
# Copyright (C) 1995-1998 Ti Kan
#
# Track frame offsets:
#       150
#       20710
#       34987
#       53137
#       69085
#       87622
#       105172
#       121510
#       134710
#       149690
#       172855
#
# Disc length: 2452 seconds
#
# Revision: 0
# Processed by: cddbd v1.4PL0 Copyright (c) Steve Scherf et al.
# Submitted via: CD-Transfer v1.0
#
DISCID=9409920b
DTITLE=Trummer - Night Light
DYEAR=2004
DGENRE=
TTITLE0=Anything But Straight
TTITLE1=Make It Alright
TTITLE2=Oh Boy
TTITLE3=Nameless
TTITLE4=Don't Worry
TTITLE5=Slow Fade
TTITLE6=Point Of No Return
TTITLE7=The Artist
TTITLE8=Passing By
TTITLE9=Subway Eyes
TTITLE10=As You Are
EXTD=
EXTT0=
EXTT1=
EXTT2=
EXTT3=
EXTT4=
EXTT5=
EXTT6=
EXTT7=
EXTT8=
EXTT9=
EXTT10=
PLAYORDER=
